<?xml version="1.0"?>
<COLLADA xmlns="http://www.collada.org/2005/11/COLLADASchema" version="1.4.1">
  <asset>
    <contributor>
      <author>Assimp</author>
      <authoring_tool>Assimp Exporter</authoring_tool>
    </contributor>
    <created>2019-11-07T16:53:23</created>
    <modified>2019-11-07T16:53:23</modified>
    <unit name="meter" meter="0.01" />
    <up_axis>Y_UP</up_axis>
  </asset>
  <library_effects>
    <effect id="AugBALAAA-fx" name="AugBALAAA">
      <profile_COMMON>
        <technique sid="standard">
          <phong>
            <diffuse>
              <color sid="diffuse">0.588235   0.588235   0.588235   1</color>
            </diffuse>
          </phong>
        </technique>
      </profile_COMMON>
    </effect>
  </library_effects>
  <library_materials>
    <material id="AugBALAAA" name="AugBALAAA">
      <instance_effect url="#AugBALAAA-fx"/>
    </material>
  </library_materials>
  <library_geometries>
    <geometry id="meshId0" name="meshId0_name" >
      <mesh>
        <source id="meshId0-positions" name="meshId0-positions">
          <float_array id="meshId0-positions-array" count="333"> 0.0883741 -1 0.110818 0.0315404 -1 0.138187 -0.0315404 -1 0.138187 -0.0883741 -1 0.110818 -0.127704 -1 0.0614991 -0.141741 -1 -5.56996e-08 -0.127704 -1 -0.0614992 -0.0883741 -1 -0.110818 -0.0315403 -1 -0.138187 0.0315403 -1 -0.138187 0.0883741 -1 -0.110818 0.127704 -1 -0.0614991 0.141741 -1 -3.46786e-08 0.127704 -1 0.061499 0.153495 -0.971237 -0.0739192 0.117109 0.33093 -0.0563968 0.129981 0.33093 -2.98275e-08 0.170366 -0.971237 -3.97378e-08 0.106222 -0.971237 -0.133198 0.0810419 0.33093 -0.101623 0.03791 -0.971237 -0.166095 0.0289235 0.33093 -0.126722 -0.03791 -0.971237 -0.166095 -0.0289235 0.33093 -0.126722 -0.106222 -0.971237 -0.133198 -0.0810419 0.33093 -0.101623 -0.0289235 0.33093 -0.126722 -0.03791 -0.971237 -0.166095 -0.153495 -0.971237 -0.0739192 -0.117109 0.33093 -0.0563968 -0.170366 -0.971237 -6.54623e-08 -0.129981 0.33093 -4.94542e-08 -0.153495 -0.971237 0.0739191 -0.117109 0.33093 0.0563967 -0.106222 -0.971237 0.133198 -0.081042 0.33093 0.101623 -0.0379101 -0.971237 0.166095 -0.0289235 0.33093 0.126722 0.0379101 -0.971237 0.166095 0.0289236 0.33093 0.126722 0.106222 -0.971237 0.133198 0.081042 0.33093 0.101623 0.0289236 0.33093 0.126722 0.0379101 -0.971237 0.166095 0.153495 -0.971237 0.073919 0.117109 0.33093 0.0563966 0.0929768 0.438845 -0.0447753 0.085693 0.654674 -0.0412676 0.0951121 0.654674 -2.16061e-08 0.103197 0.438845 -3.87484e-08 0.064342 0.438845 -0.0806823 0.0593014 0.654674 -0.0743616 0.0229634 0.438845 -0.100609 0.0211644 0.654674 -0.0927275 -0.0229634 0.438845 -0.100609 -0.0211644 0.654674 -0.0927275 -0.064342 0.438845 -0.0806823 -0.0593014 0.654674 -0.0743616 -0.0211644 0.654674 -0.0927275 -0.0229634 0.438845 -0.100609 -0.0929768 0.438845 -0.0447753 -0.085693 0.654674 -0.0412676 -0.103197 0.438845 -5.43306e-08 -0.0951121 0.654674 -3.59676e-08 -0.0929769 0.438845 0.0447752 -0.085693 0.654674 0.0412676 -0.064342 0.438845 0.0806822 -0.0593014 0.654674 0.0743616 -0.0229634 0.438845 0.100609 -0.0211644 0.654674 0.0927274 0.0229634 0.438845 0.100609 0.0211644 0.654674 0.0927274 0.064342 0.438845 0.0806822 0.0593014 0.654674 0.0743616 0.0211644 0.654674 0.0927274 0.0229634 0.438845 0.100609 0.0929769 0.438845 0.0447752 0.085693 0.654674 0.0412675 0 1 -2.3598e-08 0 1 -2.3598e-08 0.163656 -0.992809 -3.85824e-08 0.147449 -0.992809 -0.0710077 0.102038 -0.992809 -0.127951 0.0364169 -0.992809 -0.159553 -0.0364169 -0.992809 -0.159553 -0.102038 -0.992809 -0.127951 -0.147449 -0.992809 -0.0710077 -0.163656 -0.992809 -6.31985e-08 -0.147449 -0.992809 0.0710076 -0.102038 -0.992809 0.127951 -0.0364169 -0.992809 0.159553 0.0364169 -0.992809 0.159553 0.0364169 -0.992809 0.159553 0.102038 -0.992809 0.127951 0.147449 -0.992809 0.0710075 0.163656 -0.992809 -3.85824e-08 0.147449 -0.992809 -0.0710077 0.102038 -0.992809 -0.127951 0.0364169 -0.992809 -0.159553 -0.0364169 -0.992809 -0.159553 -0.0364169 -0.992809 -0.159553 -0.102038 -0.992809 -0.127951 -0.147449 -0.992809 -0.0710077 -0.163656 -0.992809 -6.31985e-08 -0.147449 -0.992809 0.0710076 -0.102038 -0.992809 0.127951 -0.0364169 -0.992809 0.159553 0.0364169 -0.992809 0.159553 0.0364169 -0.992809 0.159553 0.102038 -0.992809 0.127951 0.147449 -0.992809 0.0710075 </float_array>
          <technique_common>
            <accessor count="111" offset="0" source="#meshId0-positions-array" stride="3">
              <param name="X" type="float" />
              <param name="Y" type="float" />
              <param name="Z" type="float" />
            </accessor>
          </technique_common>
        </source>
        <source id="meshId0-normals" name="meshId0-normals">
          <float_array id="meshId0-normals-array" count="333"> 0.112033 -0.983724 0.140484 0.0399839 -0.983724 0.175181 -0.039984 -0.983724 0.175181 -0.112033 -0.983724 0.140484 -0.161892 -0.983724 0.0779629 -0.179686 -0.983724 -4.82661e-08 -0.161892 -0.983724 -0.077963 -0.112033 -0.983724 -0.140484 -0.0399839 -0.983724 -0.175181 0.039984 -0.983724 -0.175181 0.112033 -0.983724 -0.140484 0.161892 -0.983724 -0.077963 0.179686 -0.983724 -3.98195e-08 0.161892 -0.983724 0.0779629 0.893104 -0.131839 -0.430097 0.892755 0.134725 -0.429928 0.990883 0.134725 -1.78668e-07 0.991271 -0.131839 -3.07753e-07 0.618047 -0.131839 -0.775007 0.617805 0.134725 -0.774704 0.220579 -0.131839 -0.966418 0.220492 0.134725 -0.96604 -0.220579 -0.131839 -0.966418 -0.220492 0.134725 -0.96604 -0.618047 -0.131839 -0.775007 -0.617805 0.134725 -0.774704 -0.220492 0.134725 -0.96604 -0.220579 -0.131839 -0.966418 -0.893104 -0.131839 -0.430097 -0.892755 0.134725 -0.429928 -0.991271 -0.131839 -2.16941e-07 -0.990883 0.134725 -2.77928e-07 -0.893105 -0.131839 0.430096 -0.892755 0.134725 0.429928 -0.618048 -0.131839 0.775007 -0.617806 0.134726 0.774703 -0.220579 -0.131839 0.966418 -0.220492 0.134726 0.966039 0.220579 -0.131839 0.966418 0.220492 0.134726 0.96604 0.618048 -0.131839 0.775007 0.617806 0.134726 0.774703 0.220492 0.134726 0.96604 0.220579 -0.131839 0.966418 0.893105 -0.131839 0.430096 0.892755 0.134725 0.429928 0.891844 0.141962 -0.42949 0.890762 0.150096 -0.428969 0.988671 0.150096 -4.97402e-08 0.989872 0.141962 -1.98738e-07 0.617175 0.141962 -0.773913 0.616426 0.150096 -0.772974 0.220267 0.141962 -0.965054 0.22 0.150096 -0.963883 -0.220267 0.141962 -0.965054 -0.22 0.150096 -0.963883 -0.617175 0.141962 -0.773913 -0.616427 0.150096 -0.772974 -0.22 0.150096 -0.963883 -0.220267 0.141962 -0.965054 -0.891844 0.141962 -0.42949 -0.890762 0.150096 -0.428969 -0.989872 0.141962 -2.50531e-07 -0.988671 0.150096 -1.84039e-07 -0.891844 0.141962 0.429489 -0.890762 0.150096 0.428968 -0.617175 0.141962 0.773913 -0.616427 0.150096 0.772974 -0.220267 0.141962 0.965054 -0.22 0.150096 0.963883 0.220267 0.141962 0.965054 0.22 0.150096 0.963883 0.617175 0.141962 0.773913 0.616427 0.150096 0.772974 0.22 0.150096 0.963883 0.220267 0.141962 0.965054 0.891844 0.141962 0.429489 0.890762 0.150096 0.428968 1.21484e-07 1 -3.42759e-07 1.21484e-07 1 -3.42759e-07 0.311771 -0.950157 -5.77635e-08 0.280896 -0.950157 -0.135272 0.194386 -0.950157 -0.243752 0.0693755 -0.950157 -0.303954 -0.0693755 -0.950157 -0.303954 -0.194386 -0.950157 -0.243752 -0.280896 -0.950157 -0.135272 -0.311771 -0.950157 -7.83933e-08 -0.280896 -0.950157 0.135272 -0.194386 -0.950157 0.243752 -0.0693755 -0.950157 0.303954 0.0693755 -0.950157 0.303954 0.0693755 -0.950157 0.303954 0.194386 -0.950157 0.243752 0.280896 -0.950157 0.135272 0.954872 -0.297019 -2.70186e-07 0.860309 -0.297019 -0.414304 0.595353 -0.297019 -0.746549 0.212479 -0.297019 -0.930931 -0.212479 -0.297019 -0.930931 -0.212479 -0.297019 -0.930931 -0.595353 -0.297019 -0.746549 -0.860309 -0.297019 -0.414304 -0.954872 -0.297019 -2.70186e-07 -0.86031 -0.297019 0.414303 -0.595353 -0.297019 0.746549 -0.212479 -0.297019 0.930931 0.212479 -0.297019 0.930931 0.212479 -0.297019 0.930931 0.595353 -0.297019 0.746548 0.86031 -0.297019 0.414303 </float_array>
          <technique_common>
            <accessor count="111" offset="0" source="#meshId0-normals-array" stride="3">
              <param name="X" type="float" />
              <param name="Y" type="float" />
              <param name="Z" type="float" />
            </accessor>
          </technique_common>
        </source>
        <source id="meshId0-tangents" name="meshId0-tangents">
          <float_array id="meshId0-tangents-array" count="333"> 0.993657 0.112289 -0.00612507 0.999199 0.0396011 -0.00568224 0.999182 -0.0404157 0.00110407 0.993466 -0.113981 -0.00587606 0.986685 -0.162614 -0.00296701 0.983698 -0.179682 -0.00720233 0.986807 -0.161507 -0.0112555 0.993589 -0.113049 -0.000748172 0.999191 -0.0401274 -0.00272471 0.999188 0.0402464 0.00205565 0.993698 0.11144 0.0121042 0.986792 0.161839 0.00703818 0.983716 0.179685 0.00408853 0.986661 0.162728 0.00445749 -0.434016 -0.00110534 -0.900904 -0.433263 -0.0050229 -0.901254 -0.00536503 0.0394576 -0.999207 0.0046074 0.0346444 -0.999389 -0.784125 -0.0328262 -0.619734 -0.777253 -0.0446411 -0.627602 -0.975279 -0.0433113 -0.216692 -0.969917 -0.0744747 -0.231764 -0.973704 -0.0281014 0.226075 -0.970512 -0.129221 0.203492 -0.776677 -0.0501045 0.627903 -0.782826 -0.0124573 0.622116 -0.973912 0.0240703 0.225646 -0.967611 -0.0951414 0.23383 -0.424847 -0.0671056 0.902774 -0.439464 -0.0500805 0.896863 0.0132071 -0.0993032 0.99497 -0.0125574 -0.0923557 0.995647 0.446017 -0.134989 0.884786 0.413034 -0.136454 0.900435 0.784492 -0.167249 0.59716 0.754397 -0.176363 0.632282 0.964167 -0.179211 0.195617 0.946879 -0.208141 0.245147 0.956576 -0.164325 -0.24075 0.948198 -0.26183 -0.179905 0.786032 0.0872871 -0.611992 0.765574 0.121818 -0.63171 0.957272 0.160114 -0.240821 0.975263 0.0444513 -0.216533 0.440975 0.0676111 -0.894969 0.422288 0.0823922 -0.90271 -0.431692 -0.0164949 -0.90187 -0.430496 -0.023846 -0.902277 -0.00725796 0.0478072 -0.99883 -0.00591463 0.0412401 -0.999132 -0.772971 -0.0743755 -0.630067 -0.76933 -0.0943664 -0.631844 -0.963167 -0.124789 -0.238193 -0.956476 -0.160998 -0.24338 -0.964611 -0.178712 0.193877 -0.953339 -0.242499 0.179831 -0.780132 0.0176219 0.625367 -0.773881 0.0657234 0.629912 -0.963529 0.120886 0.238744 -0.970185 0.0706733 0.231834 -0.438115 -0.0348192 0.898245 -0.434377 -0.00362481 0.900724 -0.013265 -0.0924923 0.995625 -0.0115174 -0.0758627 0.997052 0.40905 -0.15224 0.899723 0.408663 -0.148432 0.900535 0.745655 -0.208471 0.632881 0.741827 -0.218463 0.634009 0.93348 -0.256373 0.250774 0.924138 -0.284324 0.255203 0.93673 -0.306731 -0.168681 0.919434 -0.362058 -0.153475 0.759212 0.150846 -0.633122 0.748933 0.191362 -0.634413 0.935847 0.246381 -0.251967 0.94767 0.203243 -0.246197 0.418224 0.102977 -0.902488 0.413294 0.125051 -0.90197 -0.22549 -3.04455e-07 -0.974246 0.193744 2.92845e-07 0.981052 0.950118 0.311758 0.00912853 0.959609 0.280367 0.0233387 0.980661 0.194008 0.0257963 0.997538 0.0692105 0.0113298 0.997305 -0.0733502 0.00166378 0.980172 -0.197877 -0.0103277 0.959393 -0.281772 -0.0130215 0.950154 -0.31177 -0.00253282 0.959109 -0.283014 0.00370861 0.980277 -0.197195 0.0130713 0.997528 -0.069475 0.0105011 0.99759 0.0663723 -0.0202141 0.996981 0.0766877 0.0121707 0.979617 0.200869 0.00177677 0.958765 0.284157 0.00503062 0.0189695 0.0609851 -0.997958 -0.426285 0.0265186 -0.9042 -0.782781 -0.0049509 -0.622277 -0.976026 -0.0185126 -0.216865 -0.976532 0.0302513 0.213235 -0.956625 -0.131084 0.260166 -0.773234 -0.0406737 0.632815 -0.421 -0.044307 0.905978 0.0228729 -0.0735339 0.99703 0.461255 -0.107512 0.88073 0.800463 -0.139031 0.583034 0.972878 -0.153446 0.173095 0.96175 -0.104991 -0.253011 0.975262 0.0050164 -0.220997 0.796505 0.0961476 -0.596939 0.457475 0.0912695 -0.884526 </float_array>
          <technique_common>
            <accessor count="111" offset="0" source="#meshId0-tangents-array" stride="3">
              <param name="X" type="float" />
              <param name="Y" type="float" />
              <param name="Z" type="float" />
            </accessor>
          </technique_common>
        </source>
        <source id="meshId0-bitangents" name="meshId0-bitangents">
          <float_array id="meshId0-bitangents-array" count="333"> -0.00974949 0.140279 0.990064 -0.00134761 0.175268 0.98452 0.00599396 0.175082 0.984536 0.021793 0.138908 0.990065 0.0155966 0.0764445 0.996952 0.0070851 -0.00129421 0.999974 -0.00151928 -0.0787567 0.996893 -0.0151457 -0.139668 0.990083 -0.00434919 -0.175148 0.984532 0.00502822 -0.175121 0.984534 0.00374834 -0.140955 0.990009 0.00569383 -0.0780727 0.996931 -0.00402198 -0.000734692 0.999992 -0.0170717 0.0762013 0.996946 0.118299 0.991271 -0.0582075 -0.123581 0.99087 0.0538873 -0.134619 0.990097 0.0398207 0.131759 0.990666 0.0349495 0.0562646 0.990727 -0.123666 -0.119138 0.989877 0.0771362 -0.0132883 0.990324 -0.138134 -0.10317 0.98808 0.114251 -0.0569633 0.990873 -0.122174 -0.0974173 0.982421 0.159245 -0.121613 0.990004 -0.0714295 0.0741641 0.990805 0.113163 0.053653 0.990591 0.125903 -0.122774 0.986695 -0.106583 -0.147883 0.988997 0.00392076 0.0992992 0.989617 0.103917 -0.131176 0.986285 0.100178 0.134139 0.98657 0.0932055 -0.0585913 0.982037 0.179362 0.179977 0.981442 0.0661742 0.0508902 0.97706 0.206795 0.221814 0.975062 0.00732176 0.147403 0.974937 0.166645 0.2341 0.968776 -0.0816754 0.190547 0.977556 0.0898676 0.2287 0.955664 -0.185478 0.0130363 0.987421 0.157577 -0.17948 0.983366 -0.0278826 -0.187121 0.977861 -0.0936651 -0.014411 0.990274 0.138383 0.0889127 0.988963 0.118522 -0.157041 0.987452 0.0166631 -0.135116 0.989735 0.0465731 -0.145658 0.988384 0.0433748 -0.149921 0.987515 0.048355 -0.141839 0.989013 0.0416621 -0.147006 0.987074 0.0638299 -0.16778 0.984158 0.0573037 -0.154243 0.981975 0.109246 -0.191713 0.975475 0.108144 -0.144944 0.973606 0.176303 -0.206749 0.95847 0.196443 0.102416 0.989715 0.0998734 0.14535 0.986484 0.0756431 0.152355 0.981253 0.118027 0.101115 0.987346 0.122162 0.112562 0.98926 0.0932489 0.13364 0.988665 0.0684272 0.141341 0.985541 0.0934387 0.149654 0.985757 0.076732 0.193112 0.978095 0.0777045 0.19884 0.977466 0.0708787 0.251183 0.967671 0.0228081 0.264029 0.964233 0.0233212 0.283014 0.956096 -0.0760485 0.31236 0.946906 -0.0761584 0.272065 0.94115 -0.200543 0.325946 0.919992 -0.217657 -0.206621 0.978311 -0.014681 -0.243141 0.969975 0.00554869 -0.275302 0.95748 -0.0862633 -0.231091 0.968782 -0.0897656 -0.172347 0.984501 0.0324673 -0.189025 0.980731 0.049357 -0.974246 1.95644e-07 0.22549 0.981052 -1.8559e-07 -0.193744 -0.00867352 -0.00284606 0.999958 0.0157505 -0.136364 0.990534 0.0227794 -0.244053 0.969494 0.0102717 -0.303991 0.952619 -0.0238759 -0.303019 0.952685 -0.03842 -0.240927 0.969783 -0.0257435 -0.133437 0.990723 0.00240655 -0.000789732 0.999997 0.0347601 0.130782 0.990802 0.0356468 0.241485 0.96975 0.0111395 0.303931 0.952629 -0.000967529 0.304624 0.952472 -0.0348736 0.302192 0.952609 -0.0506503 0.238438 0.969836 -0.0432183 0.128281 0.990796 0.296412 0.952922 0.0638672 0.279551 0.954503 -0.103801 0.181132 0.954859 -0.235448 0.0471791 0.954692 -0.293832 -0.035173 0.954392 -0.296477 -0.199305 0.945831 -0.256283 -0.218323 0.954005 -0.20545 -0.287449 0.953843 -0.0869271 -0.296137 0.952036 0.0770091 -0.217051 0.9488 0.229495 -0.0693785 0.944696 0.320525 0.0914347 0.942462 0.321567 0.172888 0.949082 0.26335 0.0609703 0.954858 0.290737 0.105523 0.950019 0.293819 0.224908 0.9505 0.214399 </float_array>
          <technique_common>
            <accessor count="111" offset="0" source="#meshId0-bitangents-array" stride="3">
              <param name="X" type="float" />
              <param name="Y" type="float" />
              <param name="Z" type="float" />
            </accessor>
          </technique_common>
        </source>
        <source id="meshId0-tex0" name="meshId0-tex0">
          <float_array id="meshId0-tex0-array" count="222"> 0.695423 0.135464 0.667157 0.149274 0.635643 0.149267 0.60751 0.135457 0.588215 0.110827 0.581342 0.0803421 0.58803 0.0498621 0.607706 0.0255801 0.635754 0.0116913 0.667058 0.0117787 0.695278 0.0253996 0.714843 0.0498042 0.721547 0.0803235 0.714689 0.110823 0.884341 0.0116818 0.892816 0.659026 0.865308 0.659432 0.847167 0.0122953 0.921525 0.0123372 0.920357 0.659833 0.958748 0.013986 0.948049 0.661663 0.99623 0.0153967 0.976186 0.664515 0.0836627 0.0141469 0.0287726 0.659584 0.0005 0.659582 0.0462307 0.0117591 0.120862 0.0162764 0.0565178 0.660561 0.157919 0.0194018 0.0840253 0.662569 0.194837 0.0237971 0.111363 0.665786 0.231588 0.0294708 0.138581 0.670228 0.268229 0.0361883 0.16581 0.675753 0.305143 0.0428157 0.19331 0.682435 0.772896 0.0171529 0.810136 0.663784 0.782098 0.667638 0.735502 0.0200052 0.81003 0.0141963 0.837786 0.661067 0.892157 0.713601 0.891574 0.82012 0.871722 0.82035 0.867711 0.713936 0.916505 0.714611 0.911359 0.821474 0.940463 0.716845 0.93111 0.82436 0.963561 0.720102 0.951125 0.828772 0.0308278 0.715231 0.0291508 0.823106 0.00878008 0.825437 0.00751124 0.716125 0.0548793 0.715442 0.0491111 0.822265 0.0791784 0.716929 0.0689258 0.822958 0.103447 0.719769 0.0886232 0.825231 0.127443 0.723938 0.10812 0.829074 0.150886 0.729292 0.12744 0.834472 0.173339 0.735582 0.146776 0.841407 0.819538 0.718545 0.832123 0.825545 0.812169 0.830454 0.796561 0.722511 0.843408 0.715622 0.851911 0.822164 0.883118 0.996744 0.0589484 0.9995 0.732861 0.0802746 0.725177 0.0448416 0.702387 0.0164416 0.669587 0.000602125 0.633074 0.0005 0.600575 0.0167695 0.577703 0.044905 0.57003 0.0803027 0.577897 0.115537 0.600135 0.144243 0.632908 0.160517 0.669346 0.160482 0.670353 0.160572 0.702822 0.144254 0.725016 0.115531 0.846797 0.00112048 0.884334 0.000500007 0.921824 0.00116549 0.959071 0.00281978 0.995716 0.0040277 0.0478915 0.000500007 0.0844721 0.00300541 0.121697 0.00513228 0.159063 0.00827879 0.196343 0.0127177 0.233407 0.018445 0.270093 0.0251771 0.306221 0.0314847 0.735578 0.008623 0.772161 0.0060098 0.809343 0.0030431 </float_array>
          <technique_common>
            <accessor count="111" offset="0" source="#meshId0-tex0-array" stride="2">
              <param name="S" type="float" />
              <param name="T" type="float" />
            </accessor>
          </technique_common>
        </source>
        <vertices id="meshId0-vertices">
          <input semantic="POSITION" source="#meshId0-positions" />
        </vertices>
        <polylist count="166" material="defaultMaterial">
          <input offset="0" semantic="VERTEX" source="#meshId0-vertices" />
          <input offset="0" semantic="NORMAL" source="#meshId0-normals" />
          <input offset="0" semantic="TANGENT" source="#meshId0-tangents" />
          <input offset="0" semantic="BINORMAL" source="#meshId0-bitangents" />
          <input offset="0" semantic="TEXCOORD" source="#meshId0-tex0" set="0" />
          <vcount>3 3 3 3 3 3 3 3 3 3 3 3 3 3 3 3 3 3 3 3 3 3 3 3 3 3 3 3 3 3 3 3 3 3 3 3 3 3 3 3 3 3 3 3 3 3 3 3 3 3 3 3 3 3 3 3 3 3 3 3 3 3 3 3 3 3 3 3 3 3 3 3 3 3 3 3 3 3 3 3 3 3 3 3 3 3 3 3 3 3 3 3 3 3 3 3 3 3 3 3 3 3 3 3 3 3 3 3 3 3 3 3 3 3 3 3 3 3 3 3 3 3 3 3 3 3 3 3 3 3 3 3 3 3 3 3 3 3 3 3 3 3 3 3 3 3 3 3 3 3 3 3 3 3 3 3 3 3 3 3 3 3 3 3 3 3 </vcount>
          <p>0 1 2 2 3 4 4 5 6 2 4 6 6 7 8 8 9 10 6 8 10 10 11 12 6 10 12 2 6 12 0 2 12 13 0 12 14 15 16 16 17 14 18 19 15 15 14 18 20 21 19 19 18 20 22 23 21 21 20 22 24 25 26 26 27 24 28 29 25 25 24 28 30 31 29 29 28 30 32 33 31 31 30 32 34 35 33 33 32 34 36 37 35 35 34 36 38 39 37 37 36 38 40 41 42 42 43 40 44 45 41 41 40 44 17 16 45 45 44 17 46 47 48 48 49 46 50 51 47 47 46 50 52 53 51 51 50 52 54 55 53 53 52 54 56 57 58 58 59 56 60 61 57 57 56 60 62 63 61 61 60 62 64 65 63 63 62 64 66 67 65 65 64 66 68 69 67 67 66 68 70 71 69 69 68 70 72 73 74 74 75 72 76 77 73 73 72 76 76 49 48 48 77 76 46 49 16 16 15 46 50 46 15 15 19 50 52 50 19 19 21 52 54 52 21 21 23 54 56 59 26 26 25 56 60 56 25 25 29 60 62 60 29 29 31 62 64 62 31 31 33 64 66 64 33 33 35 66 68 66 35 35 37 68 70 68 37 37 39 70 72 75 42 42 41 72 76 72 41 41 45 76 49 76 45 45 16 49 47 78 48 51 78 47 53 78 51 55 78 53 57 79 58 61 79 57 63 79 61 65 79 63 67 79 65 69 79 67 71 79 69 73 78 74 77 78 73 48 78 77 80 12 11 11 81 80 81 11 10 10 82 81 82 10 9 9 83 82 83 9 8 8 84 83 84 8 7 7 85 84 85 7 6 6 86 85 86 6 5 5 87 86 87 5 4 4 88 87 88 4 3 3 89 88 89 3 2 2 90 89 90 2 1 1 91 90 92 1 0 0 93 92 93 0 13 13 94 93 94 13 12 12 80 94 17 95 96 96 14 17 14 96 97 97 18 14 18 97 98 98 20 18 20 98 99 99 22 20 27 100 101 101 24 27 24 101 102 102 28 24 28 102 103 103 30 28 30 103 104 104 32 30 32 104 105 105 34 32 34 105 106 106 36 34 36 106 107 107 38 36 43 108 109 109 40 43 40 109 110 110 44 40 44 110 95 95 17 44 </p>
        </polylist>
      </mesh>
    </geometry>
  </library_geometries>
  <library_visual_scenes>
    <visual_scene id="root" name="root">
      <node id="AugBalaLow" name="AugBalaLow">
        <matrix>1 0 0 0 0 1 0 0 0 0 1 0 0 0 0 1</matrix>
        <instance_geometry url="#meshId0">
          <bind_material>
            <technique_common>
              <instance_material symbol="defaultMaterial" target="#AugBALAAA" />
            </technique_common>
          </bind_material>
        </instance_geometry>
      </node>
    </visual_scene>
  </library_visual_scenes>
  <scene>
    <instance_visual_scene url="#root" />
  </scene>
</COLLADA>
